<svg width="24" height="24" viewBox="0 0 24 24" fill="none" xmlns="http://www.w3.org/2000/svg">
<path fill-rule="evenodd" clip-rule="evenodd" d="M10.9389 12.136L6.94095 8.138C6.64795 7.845 6.64795 7.37 6.94095 7.077C7.23395 6.785 7.70895 6.785 8.00195 7.077L12 11.075L15.9979 7.077C16.2899 6.785 16.7649 6.785 17.058 7.077C17.351 7.37 17.351 7.845 17.058 8.138L13.0599 12.136L17.058 16.134C17.351 16.427 17.351 16.902 17.058 17.195C16.7649 17.487 16.2899 17.487 15.9979 17.195L12 13.197L8.00195 17.195C7.70895 17.487 7.23395 17.487 6.94095 17.195C6.64795 16.902 6.64795 16.427 6.94095 16.134L10.9389 12.136ZM12 2C6.47 2 2 6.47 2 12C2 17.53 6.47 22 12 22C17.53 22 22 17.53 22 12C22 6.47 17.53 2 12 2Z" fill="black" fill-opacity="0.58"/>
</svg>
